{"title":"Late.Autumn.2010.720p.HDRip.H264.AAC-Playy [PublicHD]","uid":7125673,"size":2912926635,"categoryP":"video","categoryS":"hd___movies","magnet":"?xt=urn:btih:e5cc01a50faa9d45304aaa8a509bc9a84ffae2ba&amp;dn=Late.Autumn.2010.720p.HDRip.H264.AAC-Playy+%5BPublicHD%5D&amp;tr=udp%3A%2F%2Ftracker.openbittorrent.com%3A80&amp;tr=udp%3A%2F%2Fopen.demonii.com%3A1337&amp;tr=udp%3A%2F%2Ftracker.coppersurfer.tk%3A6969&amp;tr=udp%3A%2F%2Fexodus.desync.com%3A6969","seeders":0,"leechers":2,"uploader":"DibyaTPB","files":-1,"time":1332525896,"description":"\n\nLove or Hate Us You Can't Beat Us @ PublicHD . ORG\n\nYou Won't Find Every Thing But You Will Get Something\n\n-------------------------------------------------------------\n\n\n\nLate.Autumn.2010.720p.HDRip.H264.AAC-Playy [PublicHD]\n\n\n\nGeneral\n\n   Format : MPEG-4\n\n   Format profile : Base Media / Version 2\n\n   Codec ID : mp42\n\n   File size : 2.71 GiB\n\n   Duration : 1h 55mn\n\n   Overall bit rate : 3 372 Kbps\n\n   Encoded date : UTC 2012-03-19 08:08:49\n\n   Tagged date : UTC 2012-03-19 08:08:49\n\n Video #201\n\n   ID : 201\n\n   Format : AVC\n\n   Format/Info : Advanced Video Codec\n\n   Format profile : &lt;a class=&quot;__cf_email__&quot; href=&quot;/cdn-cgi/l/email-protection&quot; data-cfemail=&quot;ca82a3ada28a86fee4fb&quot;&gt;[email&amp;#160;protected]&lt;/a&gt;&lt;script cf-hash='f9e31' type=&quot;text/javascript&quot;&gt;\n/* &lt;![CDATA[ */!function(){try{var t=&quot;currentScript&quot;in document?document.currentScript:function(){for(var t=document.getElementsByTagName(&quot;script&quot;),e=t.length;e--;)if(t[e].getAttribute(&quot;cf-hash&quot;))return t[e]}();if(t&amp;&amp;t.previousSibling){var e,r,n,i,c=t.previousSibling,a=c.getAttribute(&quot;data-cfemail&quot;);if(a){for(e=&quot;&quot;,r=parseInt(a.substr(0,2),16),n=2;a.length-n;n+=2)i=parseInt(a.substr(n,2),16)^r,e+=String.fromCharCode(i);e=document.createTextNode(e),c.parentNode.replaceChild(e,c)}}}catch(u){}}();/* ]]&gt; */&lt;/script&gt;\n\n   Format settings, CABAC : Yes\n\n   Format settings, ReFrames : 2 frames\n\n   Codec ID : avc1\n\n   Codec ID/Info : Advanced Video Coding\n\n   Duration : 1h 55mn\n\n   Bit rate mode : Variable\n\n   Bit rate : 3 000 Kbps\n\n   Width : 1 280 pixels\n\n   Height : 720 pixels\n\n   Display aspect ratio : 16:9\n\n   Frame rate mode : Constant\n\n   Frame rate : 29.970 fps\n\n   Color space : YUV\n\n   Chroma subsampling : 4:2:0\n\n   Bit depth : 8 bits\n\n   Scan type : Progressive\n\n   Bits/(Pixel*Frame) : 0.109\n\n   Stream size : 2.49 GiB (92%)\n\n   Writing library : x264 core 116\n\n   Tagged date : UTC 2012-03-19 08:11:28\n\n Audio #101\n\n   ID : 101\n\n   Format : AAC\n\n   Format/Info : Advanced Audio Codec\n\n   Format version : Version 4\n\n   Format profile : LC\n\n   Format settings, SBR : No\n\n   Codec ID : 40\n\n   Duration : 1h 55mn\n\n   Bit rate mode : Variable\n\n   Bit rate : 128 Kbps\n\n   Channel(s) : 2 channels\n\n   Channel positions : Front: L R\n\n   Sampling rate : 48.0 KHz\n\n   Stream size : 105 MiB (4%)","torrent":{"xt":"urn:btih:e5cc01a50faa9d45304aaa8a509bc9a84ffae2ba","amp;dn":"Late.Autumn.2010.720p.HDRip.H264.AAC-Playy+%5BPublicHD%5D","amp;tr":["udp%3A%2F%2Ftracker.openbittorrent.com%3A80","udp%3A%2F%2Fopen.demonii.com%3A1337","udp%3A%2F%2Ftracker.coppersurfer.tk%3A6969","udp%3A%2F%2Fexodus.desync.com%3A6969"],"infoHash":"e5cc01a50faa9d45304aaa8a509bc9a84ffae2ba","infoHashBuffer":{"type":"Buffer","data":[229,204,1,165,15,170,157,69,48,74,170,138,80,155,201,168,79,250,226,186]},"announce":[],"urlList":[]}}